<?xml version="1.0" encoding="utf-8"?>
<svg xmlns="http://www.w3.org/2000/svg" shape-rendering="geometricPrecision" viewBox="359.14 371.55 305.51 233.89">
  <path d=" M 359.516 484.008 C 376.852 471.35 393.975 458.35 411.33 445.709 C 427.25 434.114 443.354 422.734 458.968 410.729 C 470.122 402.153 481.513 393.89 492.826 385.523 C 496.901 382.509 500.993 379.513 505.047 376.471 C 507.264 374.807 509.47 372.807 511.952 371.552 C 513.349 371.763 514.556 372.981 515.697 373.774 C 518.092 375.438 520.464 377.138 522.845 378.821 C 531.62 385.027 540.373 391.272 549.163 397.455 C 553.786 400.706 558.254 404.158 562.816 407.49 C 564.384 408.635 565.992 409.723 567.53 410.909 C 568.011 411.28 568.433 411.682 568.948 412.007 C 569.045 412.068 569.818 412.637 569.74 412.684 C 561.694 413.148 553.566 412.804 545.499 412.753 C 543.331 412.739 541.173 412.651 539.008 412.574 C 538.311 412.549 537.236 412.251 536.658 412.679 C 536.679 416.465 536.451 420.206 536.303 423.975 C 534.648 422.244 532.164 420.942 530.215 419.547 C 526.984 417.233 523.797 414.867 520.59 412.521 C 518.275 410.828 515.424 407.969 512.667 407.11 C 504.833 411.513 498.135 418.2 490.7 423.272 C 471.897 436.099 453.987 450.271 435.471 463.505 C 428.724 468.327 422.057 473.268 415.302 478.075 C 413.18 479.585 411.103 481.156 408.981 482.666 C 408.044 483.333 406.958 484.329 405.851 484.679 C 404.247 485.186 402.16 484.85 400.497 484.83 C 396.997 484.786 393.495 484.836 389.995 484.831 C 382.661 484.82 375.326 484.658 367.992 484.76 C 365.643 484.792 361.166 485.735 359.135 484.503 C 359.262 484.338 359.389 484.173 359.516 484.008 Z" opacity="1" fill-rule="evenodd" style="fill: rgb(234, 179, 125);"/>
  <path d=" M 413.427 494.497 C 428.001 483.806 442.916 473.54 457.613 463.01 C 466.58 456.585 475.278 449.774 484.312 443.437 C 490.71 438.949 496.949 434.178 503.173 429.454 C 506.257 427.113 509.898 423.353 513.567 422.092 C 516.096 423.485 518.356 425.578 520.705 427.263 C 526.926 431.724 533.055 436.311 539.327 440.7 C 541.799 442.43 544.201 444.817 546.927 446.116 C 546.591 438.609 547.269 431.048 546.948 423.546 C 549.502 422.798 553.165 423.504 555.854 423.545 C 560.24 423.613 564.631 423.427 569.016 423.615 C 570.577 423.682 572.449 423.426 573.947 423.88 C 573.53 429.855 573.958 436.018 573.939 442.014 C 573.897 455.68 573.986 469.347 573.941 483.013 C 573.924 487.97 573.966 492.928 573.906 497.884 C 573.89 499.166 573.873 500.478 573.968 501.757 C 573.991 502.077 574.175 502.642 573.93 502.901 C 569.274 500.37 565.257 496.017 560.971 492.888 C 550.273 485.077 539.861 476.854 529.001 469.263 C 525.163 466.58 521.478 463.686 517.633 461.009 C 516.597 460.288 514.93 458.329 513.646 458.348 C 510.709 460.679 507.428 462.639 504.439 464.926 C 490.664 475.466 476.427 485.381 462.51 495.734 C 455.763 500.753 448.436 505.25 442.065 510.742 C 441.709 519.79 442.126 528.943 442.124 538.003 C 442.121 549.448 441.754 560.951 441.99 572.383 C 442.214 583.272 442.675 594.429 441.855 605.293 C 432.48 604.858 422.835 605.013 413.455 605.333 C 412.945 604.866 413.103 604.171 413.079 603.505 C 413.019 601.843 413.1 600.167 413.103 598.503 C 413.115 591.505 413.152 584.506 413.156 577.508 C 413.165 558.841 413.182 540.175 413.141 521.509 C 413.122 512.672 413.654 503.625 413.087 494.813 C 413.2 494.707 413.314 494.602 413.427 494.497 Z" opacity="1" fill-rule="evenodd" style="fill: rgb(255, 255, 255);"/>
  <path d=" M 479.759 523.251 C 482.453 522.544 485.738 523.09 488.506 523.172 C 492.668 523.294 496.841 523.173 501.004 523.156 C 502.599 523.149 504.201 523.121 505.795 523.166 C 506.257 523.179 507.183 523.013 507.429 523.418 C 507.515 529.937 507.6 536.462 507.573 542.993 C 507.563 545.195 508.256 548.922 507.268 550.938 C 498.319 550.168 489.108 551.429 480.114 550.926 C 479.414 547.874 479.84 544.239 479.917 541.116 C 480.063 535.2 480.301 529.15 479.759 523.251 Z" opacity="1" fill-rule="evenodd" style="fill: rgb(234, 179, 125);"/>
  <path d=" M 480.24 561.273 C 485.517 560.595 491.192 561.049 496.511 561.109 C 500.103 561.149 504.003 560.739 507.551 561.252 C 508.026 570.194 507.858 579.383 507.565 588.335 C 505.188 588.695 502.526 588.375 500.117 588.42 C 493.543 588.544 486.956 588.246 480.391 588.439 C 479.68 586.169 480.267 582.889 480.261 580.502 C 480.244 574.126 480.616 567.635 480.24 561.273 Z" opacity="1" fill-rule="evenodd" style="fill: rgb(234, 179, 125);"/>
  <path d=" M 517.432 524.609 C 517.559 523.999 517.528 524.364 517.396 523.51 C 519.374 522.872 521.93 523.264 524.003 523.248 C 528.502 523.213 533.004 523.237 537.503 523.25 C 539.17 523.255 540.837 523.26 542.504 523.248 C 543.106 523.244 543.874 523.064 544.387 523.402 C 544.12 529.94 544.678 536.558 544.673 543.108 C 544.671 545.159 545.412 549.076 544.279 550.83 C 535.407 551.059 526.333 550.275 517.494 550.897 C 516.893 546.916 517.315 542.522 517.313 538.496 C 517.31 533.948 516.878 529.124 517.432 524.609 Z" opacity="1" fill-rule="evenodd" style="fill: rgb(234, 179, 125);"/>
  <path d=" M 517.473 562.104 C 517.502 561.91 517.531 561.715 517.56 561.521 C 519.433 560.429 522.381 560.951 524.502 560.949 C 529.169 560.943 533.835 560.884 538.502 560.894 C 540.31 560.898 542.792 560.472 544.479 561.159 C 544.317 568.066 544.614 575.074 544.636 582.002 C 544.642 583.662 544.674 585.325 544.636 586.985 C 544.632 587.149 544.71 588.334 544.53 588.402 C 538.705 588.643 532.828 588.407 526.998 588.403 C 524.048 588.402 520.431 588.944 517.562 588.324 C 517.161 583.256 517.366 578.085 517.356 572.994 C 517.349 569.415 517.049 565.66 517.473 562.104 Z" opacity="1" fill-rule="evenodd" style="fill: rgb(234, 179, 125);"/>
  <path d=" M 583.465 523.62 C 583.891 519.996 583.577 516.149 583.586 512.5 C 583.606 504.501 583.75 496.503 583.75 488.503 C 583.75 484.065 583.326 479.464 583.784 475.054 C 587.128 476.131 590.23 479.402 593.083 481.42 C 599.443 485.919 606.038 490.351 611.966 495.41 C 612.791 498.556 612.147 502.74 612.146 506 C 612.142 513.167 612.151 520.333 612.148 527.5 C 612.139 545.333 612.192 563.166 612.126 581 C 612.103 587.264 612.242 593.549 612.068 599.81 C 612.018 601.643 611.71 603.503 611.787 605.341 C 602.428 605.049 592.772 604.939 583.422 605.44 C 582.624 604.267 583.283 600.968 583.278 599.504 C 583.262 594.337 583.282 589.17 583.289 584.003 C 583.316 563.906 582.685 543.704 583.465 523.62 Z" opacity="1" fill-rule="evenodd" style="fill: rgb(255, 255, 255);"/>
  <path d=" M 583.743 398.259 C 587.767 397.717 591.939 397.964 596 397.894 C 601.343 397.802 606.886 397.469 612.214 397.876 C 611.759 401.436 612.227 405.398 612.231 408.998 C 612.24 416.499 612.247 423.999 612.254 431.499 C 612.257 434.498 612.28 437.498 612.276 440.498 C 612.275 441.818 611.961 443.702 612.524 444.905 C 616.739 448.572 621.499 451.681 625.965 455.033 C 634.655 461.554 643.388 468.021 652.152 474.442 C 655.356 476.789 658.696 479.05 661.774 481.558 C 662.366 482.041 664.761 483.489 664.641 484.257 C 662.957 485.27 660.365 484.784 658.499 484.76 C 653.833 484.699 649.166 484.73 644.5 484.722 C 638.715 484.713 632.931 484.724 627.147 484.723 C 624.571 484.723 621.582 485.284 619.053 484.78 C 617.941 484.558 616.9 483.503 615.989 482.872 C 613.577 481.203 611.179 479.484 608.837 477.72 C 603.522 473.714 598.098 469.845 592.735 465.905 C 589.856 463.79 586.147 461.817 583.844 459.047 C 583.232 457.511 583.705 455.161 583.705 453.499 C 583.703 449.332 583.731 445.166 583.737 440.999 C 583.754 426.775 584.138 412.474 583.743 398.259 Z" opacity="1" fill-rule="evenodd" style="fill: rgb(234, 179, 125);"/>
</svg>