<svg xmlns="http://www.w3.org/2000/svg"
shape-rendering="geometricPrecision"
width="4000" height="4000" viewBox="0 0 587 587">
  <metadata>null</metadata>

<path d="
M 26.244 352.828
C 39.32 352.893 52.422 352.851 65.502 352.793
C 69.669 352.775 73.836 352.82 78.003 352.807
C 80.069 352.801 82.439 352.503 84.467 352.866
C 84.185 356.622 83.996 360.709 84.409 364.455
C 82.416 364.764 80.165 364.433 78.146 364.412
C 74.642 364.375 71.145 364.515 67.647 364.544
C 66.128 364.557 62.72 364.005 61.499 364.887
C 60.917 378.901 61.457 393.058 61.563 407.083
C 61.591 410.888 61.573 414.694 61.572 418.499
C 61.572 419.705 61.174 422.081 61.662 423.132
C 58.884 422.779 55.812 423.159 53.002 423.131
C 51.712 423.119 50.21 423.331 49.016 422.815
C 48.759 419.634 49.05 416.407 49.055 413.216
C 49.062 407.976 48.942 402.737 48.938 397.494
C 48.931 386.69 48.426 375.754 48.829 364.967
C 48.044 363.872 44.305 364.409 43.004 364.398
C 37.499 364.352 31.914 364.138 26.419 364.448
C 25.969 363.463 26.218 362.124 26.217 361.057
C 26.216 358.401 25.792 355.439 26.244 352.828 Z"
opacity="1" fill="rgb(19,44,73)" fill-rule="evenodd" />
<path d="
M 107.235 352.847
C 118.456 352.355 129.77 352.745 141.005 352.731
C 145.172 352.726 149.338 352.733 153.505 352.749
C 155.464 352.757 157.706 352.486 159.624 352.846
C 159.612 356.686 159.414 360.57 159.402 364.429
C 150.436 364.324 141.468 364.363 132.501 364.31
C 129.584 364.293 126.667 364.299 123.75 364.317
C 122.157 364.327 120.296 364.536 118.767 363.989
C 116.36 363.129 114.272 361.179 112.079 359.891
C 110.648 359.051 108.708 358.372 107.546 357.186
C 107.232 355.829 107.15 354.237 107.235 352.847 Z"
opacity="1" fill="rgb(24,49,78)" fill-rule="evenodd" />
<path d="
M 107.185 363.44
C 111.434 365.533 115.705 367.676 120.242 369.093
C 120.512 373.226 120.318 377.712 120.003 381.844
C 126.292 382.091 132.702 381.71 139.005 381.675
C 145.066 381.641 151.222 381.956 157.267 381.508
C 157.243 385.23 156.571 389.496 157.201 393.166
C 144.942 393.047 132.525 392.717 120.281 393.295
C 119.599 394.979 119.943 397.154 119.925 398.947
C 119.883 403.169 119.952 407.394 119.879 411.615
C 120.715 411.956 122.089 411.617 123.002 411.606
C 125.504 411.577 128.006 411.589 130.508 411.586
C 137.341 411.58 144.175 411.506 151.008 411.507
C 153.974 411.508 157.465 410.979 160.375 411.489
C 160.269 414.327 160.249 417.161 160.205 420.001
C 160.194 420.758 159.908 422.5 160.241 423.121
C 148.332 423.124 136.419 423.056 124.505 423.053
C 118.809 423.052 113.004 422.719 107.323 423.082
C 106.776 417.332 107.269 411.286 107.248 405.504
C 107.197 391.489 107.482 377.446 107.185 363.44 Z"
opacity="1" fill="rgb(19,44,74)" fill-rule="evenodd" />
<path d="
M 185.389 353.552
C 185.479 353.375 185.57 353.198 185.66 353.021
C 188.26 352.794 190.883 352.837 193.494 352.843
C 194.585 352.845 195.899 352.618 196.931 352.987
C 199.714 357.496 203.675 361.608 207.044 365.696
C 212.058 371.78 216.935 377.986 221.81 384.182
C 224.961 388.187 228.113 392.186 231.289 396.172
C 232.699 397.941 234.171 400.643 235.929 402.022
C 236.319 400.773 235.932 398.814 235.928 397.492
C 235.918 393.994 235.897 390.496 235.894 386.998
C 235.882 375.618 236.273 364.151 235.83 352.782
C 238.732 352.623 241.673 352.752 244.58 352.787
C 245.667 352.8 247.457 352.447 248.411 352.921
C 247.922 358.377 248.332 364.025 248.354 369.501
C 248.403 381.669 248.442 393.839 248.407 406.007
C 248.391 411.695 248.791 417.558 248.351 423.226
C 244.85 423.125 241.132 423.706 237.665 423.279
C 236.368 422.337 235.48 420.607 234.48 419.365
C 232.223 416.562 229.88 413.831 227.678 410.984
C 221.068 402.435 214.148 394.13 207.618 385.518
C 205.294 382.452 202.739 379.547 200.467 376.446
C 200.237 376.132 198.284 373.66 198.093 373.738
C 198.046 373.758 198.167 376.085 198.155 376.48
C 198.058 379.479 198.073 382.494 198.062 385.495
C 198.031 393.828 198.122 402.162 198.099 410.495
C 198.089 414.527 197.453 419.19 198.138 423.154
C 196.956 422.854 195.351 423.14 194.113 423.116
C 191.287 423.062 188.378 422.897 185.563 423.181
C 185.019 420.093 185.388 416.633 185.38 413.5
C 185.365 407.668 185.34 401.835 185.34 396.002
C 185.34 387.002 185.34 378.003 185.317 369.003
C 185.304 363.892 185.003 358.648 185.389 353.552 Z"
opacity="1" fill="rgb(21,47,77)" fill-rule="evenodd" />
<path d="
M 205.555 226.086
C 211.595 222.379 217.274 217.653 222.991 213.443
C 239.318 201.42 255.638 189.352 272.097 177.506
C 279.182 172.407 285.948 166.843 293.127 161.876
C 294.032 161.846 295.001 162.974 295.697 163.488
C 297.549 164.854 299.453 166.15 301.321 167.493
C 307.254 171.763 313.294 175.879 319.204 180.181
C 320.869 181.392 322.566 182.531 324.194 183.792
C 324.887 184.328 325.953 184.8 326.426 185.54
C 320.606 186.651 313.823 185.735 307.921 185.566
C 307.096 187.471 307.259 189.874 307.3 191.923
C 304.059 189.639 300.836 187.34 297.626 185.01
C 296.564 184.239 294.85 182.304 293.561 182.208
C 290.313 185.055 286.477 187.384 282.998 189.951
C 277.021 194.364 270.979 198.7 264.928 203.012
C 257.216 208.507 249.617 214.17 241.907 219.673
C 238.715 221.951 235.633 224.599 232.254 226.59
C 229.799 227.408 226.097 226.659 223.506 226.635
C 219.506 226.597 215.506 226.571 211.506 226.592
C 209.42 226.603 207.169 226.941 205.113 226.587
C 205.26 226.42 205.408 226.253 205.555 226.086 Z"
opacity="1" fill="rgb(184,146,110)" fill-rule="evenodd" />
<path d="
M 236.312 232.419
C 239.876 229.53 243.924 227.169 247.617 224.434
C 255.886 218.311 264.309 212.373 272.655 206.35
C 277.137 203.116 281.633 199.899 286.081 196.619
C 288.674 194.707 291.217 192.345 294.117 190.914
C 300.715 195.098 306.514 200.876 313.348 204.699
C 313.089 200.513 313.055 195.862 313.578 191.699
C 317.386 191.848 321.229 191.745 325.046 191.8
C 325.82 191.811 328.44 191.396 328.834 191.975
C 328.533 203.132 328.759 214.341 328.845 225.502
C 328.868 228.5 328.82 231.501 328.882 234.498
C 328.896 235.144 329.356 236.933 328.99 237.431
C 326.158 235.877 323.823 233.355 321.238 231.43
C 315.207 226.94 309.213 222.346 303.084 217.992
C 301.05 216.547 299.08 215.02 297.076 213.534
C 296.151 212.848 295.211 211.771 294.079 211.489
C 284.41 218.43 274.535 225.165 265.038 232.339
C 262.433 234.306 259.75 236.189 257.109 238.108
C 255.734 239.108 253.996 240.062 252.982 241.448
C 252.595 245.931 252.872 250.537 252.871 255.035
C 252.87 263.692 252.902 272.35 252.929 281.007
C 252.94 284.507 252.95 288.007 252.945 291.507
C 252.944 293.024 253.17 294.763 252.886 296.247
C 247.459 296.584 241.965 295.828 236.54 296.273
C 236.043 295.924 236.359 293.182 236.346 292.505
C 236.272 288.673 236.285 284.838 236.281 281.005
C 236.269 270.171 236.257 259.337 236.26 248.503
C 236.261 243.226 235.75 237.662 236.312 232.419 Z"
opacity="1" fill="rgb(26,53,85)" fill-rule="evenodd" />
<path d="
M 274.802 247.861
C 278.703 247.835 282.606 247.8 286.508 247.833
C 287.486 247.842 289.78 247.389 290.526 247.922
C 291.357 253.116 289.923 258.658 290.754 263.825
C 287.017 264.008 283.237 263.845 279.495 263.862
C 278.119 263.868 276.05 264.277 274.783 263.764
C 274.636 260.181 274.709 256.587 274.695 253
C 274.688 251.381 274.347 249.409 274.802 247.861 Z"
opacity="1" fill="rgb(179,139,102)" fill-rule="evenodd" />
<path d="
M 274.769 269.764
C 278.239 268.683 282.912 269.515 286.524 269.574
C 287.693 269.593 289.712 269.169 290.694 269.769
C 290.759 274.966 290.428 280.279 290.794 285.46
C 290.812 285.527 289.283 285.414 289.054 285.41
C 287.977 285.389 286.9 285.408 285.823 285.405
C 282.266 285.396 278.714 285.456 275.161 285.551
C 274.482 284.832 274.908 282.489 274.893 281.493
C 274.833 277.584 274.845 273.672 274.769 269.764 Z"
opacity="1" fill="rgb(173,134,99)" fill-rule="evenodd" />
<path d="
M 277.204 352.729
C 281.342 352.79 286.016 352.116 290.09 352.833
C 290.588 363.283 290.187 373.962 290.037 384.433
C 289.944 390.952 289.422 397.949 292.832 403.814
C 299.638 415.519 318.288 416.284 324.741 403.788
C 328.372 396.758 327.538 388.65 327.542 380.989
C 327.544 375.669 327.3 370.305 327.456 364.992
C 327.571 361.083 327.936 356.861 327.406 352.98
C 330.339 352.182 334.165 352.753 337.203 352.773
C 337.976 352.778 339.839 352.438 340.344 353.05
C 339.96 363.176 340.283 373.369 340.292 383.502
C 340.3 393.417 340.151 402.996 334.717 411.69
C 323.434 429.743 293.053 428.733 282.056 410.971
C 275.4 400.222 277.103 387.08 277.117 375
C 277.123 370.206 277.173 365.41 277.159 360.615
C 277.152 358.017 276.898 355.31 277.204 352.729 Z"
opacity="1" fill="rgb(22,49,80)" fill-rule="evenodd" />
<path d="
M 296.475 249.099
C 296.585 248.553 296.547 248.864 296.541 248.161
C 297.194 247.456 299.061 247.807 300.004 247.82
C 302.915 247.861 305.827 247.794 308.738 247.83
C 309.65 247.842 311.104 247.517 311.931 247.921
C 311.637 253.114 312.058 258.486 312.096 263.696
C 306.95 263.931 301.722 263.93 296.576 263.701
C 296.156 258.968 296.109 253.836 296.475 249.099 Z"
opacity="1" fill="rgb(179,142,106)" fill-rule="evenodd" />
<path d="
M 296.717 269.752
C 300.117 268.747 304.474 269.416 308 269.429
C 309.008 269.433 311.4 269.072 312.106 269.768
C 312.743 274.975 311.595 280.369 312.166 285.584
C 307.051 285.244 301.858 285.726 296.753 285.462
C 295.998 280.432 296.455 274.819 296.717 269.752 Z"
opacity="1" fill="rgb(174,135,100)" fill-rule="evenodd" />
<path d="
M 334.47 187.616
C 334.919 184.115 334.712 180.283 334.61 176.76
C 338.575 176.67 342.539 176.769 346.506 176.793
C 347.541 176.8 350.083 176.342 350.879 176.932
C 350.648 182.778 350.754 188.649 350.74 194.499
C 350.733 197.459 350.287 200.739 350.699 203.66
C 352.386 205.691 355.565 207.367 357.711 208.955
C 362.843 212.754 368.012 216.506 373.143 220.307
C 375.176 221.812 377.216 223.31 379.171 224.917
C 379.626 225.291 380.83 225.816 380.986 226.396
C 380.165 226.646 379.106 226.327 378.243 226.352
C 375.613 226.429 372.978 226.474 370.347 226.522
C 366.81 226.586 363.275 226.558 359.738 226.612
C 358.135 226.636 356.179 227.035 354.612 226.673
C 352.63 226.215 350.381 223.709 348.768 222.486
C 345.677 220.143 342.468 217.953 339.342 215.657
C 337.786 214.514 335.652 213.464 334.476 211.92
C 333.871 209.362 334.39 206.128 334.389 203.491
C 334.386 198.215 334.188 192.885 334.47 187.616 Z"
opacity="1" fill="rgb(183,147,111)" fill-rule="evenodd" />
<path d="
M 334.515 221.352
C 335.023 220.874 337.762 223.355 338.487 223.846
C 340.784 225.401 342.965 227.135 345.218 228.752
C 346.977 230.015 349.102 231.103 350.613 232.663
C 351.032 247.417 350.72 262.241 350.727 277.003
C 350.729 281.336 350.729 285.67 350.722 290.003
C 350.72 291.977 350.377 294.338 350.737 296.26
C 345.349 296.534 339.62 296.589 334.237 296.298
C 334.062 279.035 334.207 261.763 334.378 244.496
C 334.454 236.788 334.195 229.051 334.515 221.352 Z"
opacity="1" fill="rgb(26,52,86)" fill-rule="evenodd" />
<path d="
M 368.976 354.104
C 369.064 353.504 369.038 353.86 368.987 353.033
C 370.29 352.4 372.372 352.769 373.797 352.768
C 377.366 352.767 380.935 352.751 384.504 352.745
C 398.864 352.721 416.606 350.146 425.482 364.247
C 431.946 374.515 428.567 388.954 418.523 395.435
C 416.573 396.694 413.567 398.285 411.227 398.365
C 412.551 400.418 414.49 402.27 416.025 404.19
C 419.451 408.476 422.778 412.842 426.269 417.075
C 427.576 418.66 428.928 420.213 430.207 421.819
C 430.449 422.122 431.54 422.93 431.47 423.26
C 427.66 423.079 423.811 423.262 419.996 423.251
C 418.693 423.247 416.525 423.701 415.383 423.062
C 412.101 418.522 408.363 414.256 404.899 409.849
C 402.444 406.725 400.227 403.294 397.546 400.37
C 396.341 399.925 394.775 400.252 393.501 400.266
C 390.935 400.293 388.366 400.252 385.8 400.26
C 384.528 400.263 382.753 399.97 381.62 400.583
C 381.606 406.217 381.617 411.862 381.62 417.501
C 381.62 418.876 381.729 420.276 381.665 421.646
C 381.655 421.85 381.687 422.821 381.495 422.921
C 377.361 422.883 373.202 423.079 369.072 422.884
C 368.639 419.487 368.89 415.926 368.897 412.499
C 368.91 406.665 368.93 400.831 368.933 394.997
C 368.94 381.43 368.244 367.648 368.976 354.104 Z
M 381.314 364.776
C 381.558 372.792 382.012 381.238 381.28 389.23
C 381.806 389.538 382.97 389.253 383.575 389.233
C 385.386 389.174 387.193 389.145 389.007 389.135
C 393.31 389.111 397.603 389.098 401.9 388.913
C 405.655 388.751 409.541 388.24 412.311 385.42
C 418.782 378.833 415.711 367.246 406.63 365.073
C 402.47 364.077 397.907 364.428 393.662 364.417
C 390.862 364.41 388.061 364.442 385.261 364.433
C 384.007 364.429 382.449 364.21 381.314 364.776 Z"
opacity="1" fill="rgb(21,48,80)" fill-rule="evenodd" />
<path d="
M 456.524 353.612
C 456.52 353.376 456.517 353.141 456.513 352.905
C 460.236 352.333 465.269 352.317 468.993 352.87
C 468.479 358.333 468.918 364.023 468.944 369.509
C 468.999 381.177 469.075 392.845 469.113 404.513
C 469.132 410.579 469.544 416.803 469.061 422.846
C 468.203 423.401 466.52 423.111 465.512 423.092
C 462.624 423.037 459.705 422.95 456.819 423.015
C 456.308 420.603 456.619 417.883 456.621 415.425
C 456.625 410.617 456.606 405.809 456.595 401.001
C 456.56 385.21 456.835 369.396 456.524 353.612 Z"
opacity="1" fill="rgb(23,50,82)" fill-rule="evenodd" />
<path d="
M 494.833 422.49
C 502.472 410.075 512.164 398.978 520.288 386.912
C 520.018 385.822 518.492 384.361 517.825 383.42
C 516.161 381.073 514.525 378.698 512.798 376.395
C 507.02 368.688 501.127 360.896 495.93 352.787
C 499.525 352.607 503.146 352.722 506.747 352.723
C 508.173 352.724 510.168 352.368 511.504 352.861
C 514.621 358.002 518.386 362.793 521.794 367.747
C 523.833 370.711 525.633 374.289 528.012 376.964
C 530.45 374.474 532.304 370.811 534.196 367.885
C 537.472 362.819 540.994 357.755 544.514 352.859
C 546.17 352.394 548.284 352.713 550.003 352.713
C 553.094 352.713 556.509 352.339 559.558 352.807
C 558.82 354.307 557.657 355.525 556.723 356.897
C 554.056 360.819 551.27 364.671 548.458 368.49
C 544.071 374.448 540.123 380.981 535.278 386.573
C 541.585 395.115 547.816 403.742 553.931 412.433
C 556.462 416.031 559.597 419.477 561.827 423.251
C 556.666 422.721 551.367 423.556 546.204 423.173
C 543.734 421.02 541.916 417.391 540.071 414.685
C 536.014 408.732 532.094 402.456 527.41 396.978
C 524.231 402.31 520.125 407.215 516.682 412.399
C 515.232 414.581 513.705 416.71 512.247 418.886
C 511.327 420.26 510.447 422.024 509.245 423.156
C 504.718 423.767 499.147 423.556 494.598 423.135
C 494.676 422.92 494.755 422.705 494.833 422.49 Z"
opacity="1" fill="rgb(23,50,81)" fill-rule="evenodd" />

</svg>